{
  "accessors": [
    {
      "bufferView": 2,
      "componentType": 5126,
      "count": 948,
      "max": [
        22.48551368713379,
        68.55195617675781,
        3.455291271209717
      ],
      "min": [
        -27.006183624267578,
        -69.90213775634766,
        -4.1440911293029785
      ],
      "type": "VEC3"
    },
    {
      "bufferView": 2,
      "byteOffset": 11376,
      "componentType": 5126,
      "count": 948,
      "max": [
        0.9999328255653381,
        0.9997636675834656,
        0.9999959468841553
      ],
      "min": [
        -0.9999985694885254,
        -0.9993892908096313,
        -0.9999997019767761
      ],
      "type": "VEC3"
    },
    {
      "bufferView": 1,
      "componentType": 5126,
      "count": 948,
      "max": [
        0.993808388710022,
        0.988078236579895
      ],
      "min": [
        0.012603919953107834,
        0.007151365280151367
      ],
      "type": "VEC2"
    },
    {
      "bufferView": 0,
      "componentType": 5125,
      "count": 4650,
      "type": "SCALAR"
    },
    {
      "bufferView": 2,
      "byteOffset": 22752,
      "componentType": 5126,
      "count": 184,
      "max": [
        5.811158180236816,
        23.901405334472656,
        1.223484754562378
      ],
      "min": [
        -10.390999794006348,
        -6.918270111083984,
        -1.200698971748352
      ],
      "type": "VEC3"
    },
    {
      "bufferView": 2,
      "byteOffset": 24960,
      "componentType": 5126,
      "count": 184,
      "max": [
        0.9998953342437744,
        0.948154866695404,
        0.9975717663764954
      ],
      "min": [
        -0.9999440908432007,
        -0.9950366020202637,
        -0.9975717663764954
      ],
      "type": "VEC3"
    },
    {
      "bufferView": 1,
      "byteOffset": 7584,
      "componentType": 5126,
      "count": 184,
      "max": [
        0.9994783401489258,
        1.0000388622283936
      ],
      "min": [
        -0.0005182623863220215,
        -0.00026094913482666016
      ],
      "type": "VEC2"
    },
    {
      "bufferView": 0,
      "byteOffset": 18600,
      "componentType": 5125,
      "count": 972,
      "type": "SCALAR"
    },
    {
      "bufferView": 2,
      "byteOffset": 27168,
      "componentType": 5126,
      "count": 390,
      "max": [
        17.669004440307617,
        32.80949401855469,
        4.68177604675293
      ],
      "min": [
        -27.582246780395508,
        -16.009521484375,
        -8.249353823197407e-15
      ],
      "type": "VEC3"
    },
    {
      "bufferView": 2,
      "byteOffset": 31848,
      "componentType": 5126,
      "count": 390,
      "max": [
        1.0,
        0.999808132648468,
        0.9999988675117493
      ],
      "min": [
        -0.9999948740005493,
        -0.9994978904724121,
        -0.999998927116394
      ],
      "type": "VEC3"
    },
    {
      "bufferView": 1,
      "byteOffset": 9056,
      "componentType": 5126,
      "count": 390,
      "max": [
        1.0,
        0.9831454157829285
      ],
      "min": [
        -5.960464477539063e-08,
        0.0
      ],
      "type": "VEC2"
    },
    {
      "bufferView": 0,
      "byteOffset": 22488,
      "componentType": 5125,
      "count": 2016,
      "type": "SCALAR"
    }
  ],
  "asset": {
    "extras": {
      "author": "Gustavo.Fabi (https://sketchfab.com/Gustavo.Fabi)",
      "license": "CC-BY-4.0 (http://creativecommons.org/licenses/by/4.0/)",
      "source": "https://sketchfab.com/3d-models/musical-notes-8e1f180f69a84941921bd8b90d424e23",
      "title": "Musical Notes"
    },
    "generator": "Sketchfab-13.93.0",
    "version": "2.0"
  },
  "bufferViews": [
    {
      "buffer": 0,
      "byteLength": 30552,
      "name": "floatBufferViews",
      "target": 34963
    },
    {
      "buffer": 0,
      "byteLength": 12176,
      "byteOffset": 30552,
      "byteStride": 8,
      "name": "floatBufferViews",
      "target": 34962
    },
    {
      "buffer": 0,
      "byteLength": 36528,
      "byteOffset": 42728,
      "byteStride": 12,
      "name": "floatBufferViews",
      "target": 34962
    }
  ],
  "buffers": [
    {
      "byteLength": 79256,
      "uri": "scene.bin"
    }
  ],
  "materials": [
    {
      "doubleSided": true,
      "name": "lambert1",
      "pbrMetallicRoughness": {
        "baseColorFactor": [
          0.5,
          0.5,
          0.5,
          1.0
        ],
        "metallicFactor": 0.0,
        "roughnessFactor": 0.6
      }
    },
    {
      "doubleSided": true,
      "name": "lambert2",
      "pbrMetallicRoughness": {
        "baseColorFactor": [
          0.5,
          0.5,
          0.5,
          1.0
        ],
        "metallicFactor": 0.0,
        "roughnessFactor": 0.6
      }
    },
    {
      "doubleSided": true,
      "name": "lambert3",
      "pbrMetallicRoughness": {
        "baseColorFactor": [
          0.5,
          0.5,
          0.5,
          1.0
        ],
        "metallicFactor": 0.0,
        "roughnessFactor": 0.6
      }
    }
  ],
  "meshes": [
    {
      "name": "SM_MusicNote_03_lambert1_0",
      "primitives": [
        {
          "attributes": {
            "NORMAL": 1,
            "POSITION": 0,
            "TEXCOORD_0": 2
          },
          "indices": 3,
          "material": 0,
          "mode": 4
        }
      ]
    },
    {
      "name": "SM_MusicNote_02_lambert2_0",
      "primitives": [
        {
          "attributes": {
            "NORMAL": 5,
            "POSITION": 4,
            "TEXCOORD_0": 6
          },
          "indices": 7,
          "material": 1,
          "mode": 4
        }
      ]
    },
    {
      "name": "SM_MusicNote_01_lambert3_0",
      "primitives": [
        {
          "attributes": {
            "NORMAL": 9,
            "POSITION": 8,
            "TEXCOORD_0": 10
          },
          "indices": 11,
          "material": 2,
          "mode": 4
        }
      ]
    }
  ],
  "nodes": [
    {
      "children": [
        1
      ],
      "matrix": [
        1.0,
        0.0,
        0.0,
        0.0,
        0.0,
        2.220446049250313e-16,
        -1.0,
        0.0,
        0.0,
        1.0,
        2.220446049250313e-16,
        0.0,
        0.0,
        0.0,
        0.0,
        1.0
      ],
      "name": "Sketchfab_model"
    },
    {
      "children": [
        2
      ],
      "matrix": [
        0.009999999776482582,
        0.0,
        0.0,
        0.0,
        0.0,
        0.0,
        0.009999999776482582,
        0.0,
        0.0,
        -0.009999999776482582,
        0.0,
        0.0,
        0.0,
        0.0,
        0.0,
        1.0
      ],
      "name": "5a0291bcd079466bb7c95bdda0b72545.fbx"
    },
    {
      "children": [
        3,
        5,
        7
      ],
      "name": "RootNode"
    },
    {
      "children": [
        4
      ],
      "name": "SM_MusicNote_03"
    },
    {
      "mesh": 0,
      "name": "SM_MusicNote_03_lambert1_0"
    },
    {
      "children": [
        6
      ],
      "matrix": [
        2.531662702560425,
        0.0,
        0.0,
        0.0,
        0.0,
        2.531662702560425,
        0.0,
        0.0,
        0.0,
        0.0,
        2.531662702560425,
        0.0,
        -47.100006103515625,
        -13.462566375732422,
        3.434984230648447e-14,
        1.0
      ],
      "name": "SM_MusicNote_02"
    },
    {
      "mesh": 1,
      "name": "SM_MusicNote_02_lambert2_0"
    },
    {
      "children": [
        8
      ],
      "matrix": [
        1.5135053396224976,
        0.0,
        0.0,
        0.0,
        0.0,
        1.5135053396224976,
        0.0,
        0.0,
        0.0,
        0.0,
        1.5135053396224976,
        0.0,
        66.2826919555664,
        -5.473011909125358e-15,
        0.0,
        1.0
      ],
      "name": "SM_MusicNote_01"
    },
    {
      "mesh": 2,
      "name": "SM_MusicNote_01_lambert3_0"
    }
  ],
  "scene": 0,
  "scenes": [
    {
      "name": "Sketchfab_Scene",
      "nodes": [
        0
      ]
    }
  ]
}
